<svg xmlns="http://www.w3.org/2000/svg" xmlns:xlink="http://www.w3.org/1999/xlink" width="6912" zoomAndPan="magnify" viewBox="0 0 5184 2592.000001" height="3456" preserveAspectRatio="xMidYMid meet" version="1.0"><defs><g/><clipPath id="id1"><path d="M 855.164062 1137 L 1135 1137 L 1135 1231 L 855.164062 1231 Z M 855.164062 1137 " clip-rule="nonzero"/></clipPath><clipPath id="id2"><path d="M 855.164062 860 L 1135 860 L 1135 1194 L 855.164062 1194 Z M 855.164062 860 " clip-rule="nonzero"/></clipPath><clipPath id="id3"><path d="M 1047 948 L 1204.171875 948 L 1204.171875 1105 L 1047 1105 Z M 1047 948 " clip-rule="nonzero"/></clipPath></defs><path fill="#000000" d="M 5010.308594 1950.949219 L 249.859375 1950.949219 C 234.941406 1950.949219 222.636719 1938.621094 222.636719 1923.675781 L 222.636719 723.042969 C 222.636719 708.09375 234.941406 695.765625 249.859375 695.765625 L 5009.9375 695.765625 C 5024.855469 695.765625 5037.160156 708.09375 5037.160156 723.042969 L 5037.160156 1923.300781 C 5037.53125 1938.621094 5025.226562 1950.949219 5010.308594 1950.949219 " fill-opacity="1" fill-rule="nonzero"/><path fill="#000000" d="M 5010.308594 703.984375 C 5020.75 703.984375 5029.328125 712.578125 5029.328125 723.042969 L 5029.328125 1923.675781 C 5029.328125 1934.136719 5020.75 1942.730469 5010.308594 1942.730469 L 249.859375 1942.730469 C 239.417969 1942.730469 230.839844 1934.136719 230.839844 1923.675781 L 230.839844 723.042969 C 230.839844 712.578125 239.417969 703.984375 249.859375 703.984375 L 5010.308594 703.984375 M 5010.308594 686.425781 L 249.859375 686.425781 C 229.722656 686.425781 213.3125 702.863281 213.3125 723.042969 L 213.3125 1923.675781 C 213.3125 1943.851562 229.722656 1960.292969 249.859375 1960.292969 L 5010.308594 1960.292969 C 5030.449219 1960.292969 5046.855469 1943.851562 5046.855469 1923.675781 L 5046.855469 723.042969 C 5046.855469 702.863281 5030.449219 686.425781 5010.308594 686.425781 " fill-opacity="1" fill-rule="nonzero"/><path fill="#ffffff" d="M 4951.203125 1885.933594 L 173.175781 1885.933594 C 158.25 1885.933594 145.9375 1873.652344 145.9375 1858.765625 L 145.9375 669.472656 C 145.9375 654.589844 158.25 642.308594 173.175781 642.308594 L 4950.832031 642.308594 C 4965.757812 642.308594 4978.070312 654.589844 4978.070312 669.472656 L 4978.070312 1858.394531 C 4978.441406 1873.652344 4966.128906 1885.933594 4951.203125 1885.933594 " fill-opacity="1" fill-rule="nonzero"/><path fill="#000000" d="M 4951.203125 650.496094 C 4961.652344 650.496094 4970.234375 659.054688 4970.234375 669.472656 L 4970.234375 1858.765625 C 4970.234375 1869.1875 4961.652344 1877.746094 4951.203125 1877.746094 L 173.175781 1877.746094 C 162.726562 1877.746094 154.144531 1869.1875 154.144531 1858.765625 L 154.144531 669.472656 C 154.144531 659.054688 162.726562 650.496094 173.175781 650.496094 L 4951.203125 650.496094 M 4951.203125 633.003906 L 173.175781 633.003906 C 153.027344 633.003906 136.609375 649.378906 136.609375 669.472656 L 136.609375 1858.765625 C 136.609375 1878.863281 153.027344 1895.238281 173.175781 1895.238281 L 4951.203125 1895.238281 C 4971.351562 1895.238281 4987.769531 1878.863281 4987.769531 1858.765625 L 4987.769531 669.472656 C 4987.769531 649.378906 4971.351562 633.003906 4951.203125 633.003906 " fill-opacity="1" fill-rule="nonzero"/><g fill="#101011" fill-opacity="1"><g transform="translate(780.063956, 1712.473955)"><g><path d="M 106.03125 0 L 88.796875 -44.015625 L 33.328125 -44.015625 L 16.28125 0 L 0 0 L 54.71875 -138.96875 L 68.25 -138.96875 L 122.6875 0 Z M 83.78125 -58.5 L 67.6875 -101.390625 C 65.601562 -106.816406 63.457031 -113.472656 61.25 -121.359375 C 59.863281 -115.296875 57.875 -108.640625 55.28125 -101.390625 L 39 -58.5 Z M 83.78125 -58.5 "/></g></g></g><g fill="#101011" fill-opacity="1"><g transform="translate(902.741825, 1712.473955)"><g/></g></g><g fill="#101011" fill-opacity="1"><g transform="translate(953.100333, 1712.473955)"><g><path d="M 32.375 0 L 16.65625 0 L 16.65625 -147.296875 L 32.375 -147.296875 Z M 32.375 0 "/></g></g></g><g fill="#101011" fill-opacity="1"><g transform="translate(1002.133617, 1712.473955)"><g><path d="M 106.21875 -51.96875 C 106.21875 -35.050781 101.957031 -21.84375 93.4375 -12.34375 C 84.914062 -2.851562 73.144531 1.890625 58.125 1.890625 C 48.84375 1.890625 40.601562 -0.285156 33.40625 -4.640625 C 26.21875 -8.992188 20.664062 -15.238281 16.75 -23.375 C 12.84375 -31.519531 10.890625 -41.050781 10.890625 -51.96875 C 10.890625 -68.882812 15.113281 -82.054688 23.5625 -91.484375 C 32.019531 -100.921875 43.757812 -105.640625 58.78125 -105.640625 C 73.300781 -105.640625 84.835938 -100.8125 93.390625 -91.15625 C 101.941406 -81.5 106.21875 -68.4375 106.21875 -51.96875 Z M 27.171875 -51.96875 C 27.171875 -38.71875 29.820312 -28.617188 35.125 -21.671875 C 40.425781 -14.734375 48.21875 -11.265625 58.5 -11.265625 C 68.789062 -11.265625 76.601562 -14.71875 81.9375 -21.625 C 87.269531 -28.539062 89.9375 -38.65625 89.9375 -51.96875 C 89.9375 -65.15625 87.269531 -75.171875 81.9375 -82.015625 C 76.601562 -88.867188 68.726562 -92.296875 58.3125 -92.296875 C 48.03125 -92.296875 40.269531 -88.921875 35.03125 -82.171875 C 29.789062 -75.421875 27.171875 -65.351562 27.171875 -51.96875 Z M 27.171875 -51.96875 "/></g></g></g><g fill="#101011" fill-opacity="1"><g transform="translate(1119.226657, 1712.473955)"><g><path d="M 4.078125 46.578125 C -1.921875 46.578125 -6.785156 45.785156 -10.515625 44.203125 L -10.515625 31.421875 C -6.148438 32.691406 -1.859375 33.328125 2.359375 33.328125 C 7.285156 33.328125 10.898438 31.984375 13.203125 29.296875 C 15.503906 26.617188 16.65625 22.535156 16.65625 17.046875 L 16.65625 -103.75 L 32.375 -103.75 L 32.375 15.90625 C 32.375 36.351562 22.941406 46.578125 4.078125 46.578125 Z M 15.328125 -131.875 C 15.328125 -135.46875 16.210938 -138.097656 17.984375 -139.765625 C 19.753906 -141.441406 21.960938 -142.28125 24.609375 -142.28125 C 27.140625 -142.28125 29.316406 -141.425781 31.140625 -139.71875 C 32.972656 -138.019531 33.890625 -135.40625 33.890625 -131.875 C 33.890625 -128.332031 32.972656 -125.691406 31.140625 -123.953125 C 29.316406 -122.222656 27.140625 -121.359375 24.609375 -121.359375 C 21.960938 -121.359375 19.753906 -122.222656 17.984375 -123.953125 C 16.210938 -125.691406 15.328125 -128.332031 15.328125 -131.875 Z M 15.328125 -131.875 "/></g></g></g><g fill="#101011" fill-opacity="1"><g transform="translate(1168.259941, 1712.473955)"><g><path d="M 80.46875 0 L 77.34375 -14.765625 L 76.578125 -14.765625 C 71.410156 -8.265625 66.253906 -3.863281 61.109375 -1.5625 C 55.960938 0.738281 49.539062 1.890625 41.84375 1.890625 C 31.550781 1.890625 23.488281 -0.757812 17.65625 -6.0625 C 11.820312 -11.363281 8.90625 -18.90625 8.90625 -28.6875 C 8.90625 -49.632812 25.660156 -60.613281 59.171875 -61.625 L 76.78125 -62.1875 L 76.78125 -68.625 C 76.78125 -76.769531 75.023438 -82.78125 71.515625 -86.65625 C 68.015625 -90.539062 62.414062 -92.484375 54.71875 -92.484375 C 46.070312 -92.484375 36.289062 -89.832031 25.375 -84.53125 L 20.546875 -96.5625 C 25.648438 -99.332031 31.25 -101.503906 37.34375 -103.078125 C 43.4375 -104.660156 49.539062 -105.453125 55.65625 -105.453125 C 68.03125 -105.453125 77.195312 -102.707031 83.15625 -97.21875 C 89.125 -91.726562 92.109375 -82.925781 92.109375 -70.8125 L 92.109375 0 Z M 44.96875 -11.078125 C 54.75 -11.078125 62.429688 -13.757812 68.015625 -19.125 C 73.597656 -24.488281 76.390625 -32 76.390625 -41.65625 L 76.390625 -51.03125 L 60.6875 -50.359375 C 48.1875 -49.921875 39.175781 -47.976562 33.65625 -44.53125 C 28.132812 -41.09375 25.375 -35.75 25.375 -28.5 C 25.375 -22.8125 27.09375 -18.484375 30.53125 -15.515625 C 33.96875 -12.554688 38.78125 -11.078125 44.96875 -11.078125 Z M 44.96875 -11.078125 "/></g></g></g><g fill="#101011" fill-opacity="1"><g transform="translate(1276.076412, 1712.473955)"><g/></g></g><g fill="#101011" fill-opacity="1"><g transform="translate(1326.43492, 1712.473955)"><g><path d="M 64.9375 1.890625 C 58.1875 1.890625 52.019531 0.644531 46.4375 -1.84375 C 40.851562 -4.332031 36.164062 -8.164062 32.375 -13.34375 L 31.234375 -13.34375 C 31.992188 -7.289062 32.375 -1.550781 32.375 3.875 L 32.375 46.578125 L 16.65625 46.578125 L 16.65625 -103.75 L 29.4375 -103.75 L 31.625 -89.546875 L 32.375 -89.546875 C 36.414062 -95.234375 41.117188 -99.335938 46.484375 -101.859375 C 51.847656 -104.378906 58 -105.640625 64.9375 -105.640625 C 78.695312 -105.640625 89.316406 -100.9375 96.796875 -91.53125 C 104.273438 -82.132812 108.015625 -68.945312 108.015625 -51.96875 C 108.015625 -34.925781 104.210938 -21.6875 96.609375 -12.25 C 89.003906 -2.820312 78.445312 1.890625 64.9375 1.890625 Z M 62.671875 -92.296875 C 52.066406 -92.296875 44.394531 -89.359375 39.65625 -83.484375 C 34.925781 -77.617188 32.5 -68.28125 32.375 -55.46875 L 32.375 -51.96875 C 32.375 -37.394531 34.800781 -26.96875 39.65625 -20.6875 C 44.519531 -14.40625 52.316406 -11.265625 63.046875 -11.265625 C 72.003906 -11.265625 79.023438 -14.890625 84.109375 -22.140625 C 89.191406 -29.398438 91.734375 -39.40625 91.734375 -52.15625 C 91.734375 -65.09375 89.191406 -75.015625 84.109375 -81.921875 C 79.023438 -88.835938 71.878906 -92.296875 62.671875 -92.296875 Z M 62.671875 -92.296875 "/></g></g></g><g fill="#101011" fill-opacity="1"><g transform="translate(1445.23182, 1712.473955)"><g><path d="M 60.484375 1.890625 C 45.148438 1.890625 33.050781 -2.773438 24.1875 -12.109375 C 15.320312 -21.453125 10.890625 -34.425781 10.890625 -51.03125 C 10.890625 -67.75 15.003906 -81.03125 23.234375 -90.875 C 31.472656 -100.71875 42.535156 -105.640625 56.421875 -105.640625 C 69.421875 -105.640625 79.707031 -101.363281 87.28125 -92.8125 C 94.851562 -84.269531 98.640625 -72.992188 98.640625 -58.984375 L 98.640625 -49.03125 L 27.171875 -49.03125 C 27.484375 -36.851562 30.554688 -27.609375 36.390625 -21.296875 C 42.234375 -14.984375 50.457031 -11.828125 61.0625 -11.828125 C 72.226562 -11.828125 83.269531 -14.164062 94.1875 -18.84375 L 94.1875 -4.828125 C 88.632812 -2.429688 83.378906 -0.710938 78.421875 0.328125 C 73.472656 1.367188 67.492188 1.890625 60.484375 1.890625 Z M 56.234375 -92.484375 C 47.898438 -92.484375 41.253906 -89.769531 36.296875 -84.34375 C 31.347656 -78.914062 28.429688 -71.40625 27.546875 -61.8125 L 81.796875 -61.8125 C 81.796875 -71.71875 79.582031 -79.304688 75.15625 -84.578125 C 70.738281 -89.847656 64.429688 -92.484375 56.234375 -92.484375 Z M 56.234375 -92.484375 "/></g></g></g><g fill="#101011" fill-opacity="1"><g transform="translate(1553.99488, 1712.473955)"><g><path d="M 64 -105.640625 C 68.601562 -105.640625 72.734375 -105.265625 76.390625 -104.515625 L 74.21875 -89.9375 C 69.925781 -90.882812 66.140625 -91.359375 62.859375 -91.359375 C 54.460938 -91.359375 47.28125 -87.945312 41.3125 -81.125 C 35.351562 -74.3125 32.375 -65.820312 32.375 -55.65625 L 32.375 0 L 16.65625 0 L 16.65625 -103.75 L 29.625 -103.75 L 31.421875 -84.53125 L 32.1875 -84.53125 C 36.03125 -91.289062 40.664062 -96.5 46.09375 -100.15625 C 51.53125 -103.8125 57.5 -105.640625 64 -105.640625 Z M 64 -105.640625 "/></g></g></g><g fill="#101011" fill-opacity="1"><g transform="translate(1633.129679, 1712.473955)"><g><path d="M 63.421875 -91.546875 L 37.015625 -91.546875 L 37.015625 0 L 21.296875 0 L 21.296875 -91.546875 L 2.75 -91.546875 L 2.75 -98.640625 L 21.296875 -104.328125 L 21.296875 -110.09375 C 21.296875 -135.59375 32.4375 -148.34375 54.71875 -148.34375 C 60.207031 -148.34375 66.644531 -147.238281 74.03125 -145.03125 L 69.953125 -132.4375 C 63.898438 -134.394531 58.726562 -135.375 54.4375 -135.375 C 48.5 -135.375 44.109375 -133.398438 41.265625 -129.453125 C 38.429688 -125.503906 37.015625 -119.175781 37.015625 -110.46875 L 37.015625 -103.75 L 63.421875 -103.75 Z M 63.421875 -91.546875 "/></g></g></g><g fill="#101011" fill-opacity="1"><g transform="translate(1698.82292, 1712.473955)"><g><path d="M 60.484375 1.890625 C 45.148438 1.890625 33.050781 -2.773438 24.1875 -12.109375 C 15.320312 -21.453125 10.890625 -34.425781 10.890625 -51.03125 C 10.890625 -67.75 15.003906 -81.03125 23.234375 -90.875 C 31.472656 -100.71875 42.535156 -105.640625 56.421875 -105.640625 C 69.421875 -105.640625 79.707031 -101.363281 87.28125 -92.8125 C 94.851562 -84.269531 98.640625 -72.992188 98.640625 -58.984375 L 98.640625 -49.03125 L 27.171875 -49.03125 C 27.484375 -36.851562 30.554688 -27.609375 36.390625 -21.296875 C 42.234375 -14.984375 50.457031 -11.828125 61.0625 -11.828125 C 72.226562 -11.828125 83.269531 -14.164062 94.1875 -18.84375 L 94.1875 -4.828125 C 88.632812 -2.429688 83.378906 -0.710938 78.421875 0.328125 C 73.472656 1.367188 67.492188 1.890625 60.484375 1.890625 Z M 56.234375 -92.484375 C 47.898438 -92.484375 41.253906 -89.769531 36.296875 -84.34375 C 31.347656 -78.914062 28.429688 -71.40625 27.546875 -61.8125 L 81.796875 -61.8125 C 81.796875 -71.71875 79.582031 -79.304688 75.15625 -84.578125 C 70.738281 -89.847656 64.429688 -92.484375 56.234375 -92.484375 Z M 56.234375 -92.484375 "/></g></g></g><g fill="#101011" fill-opacity="1"><g transform="translate(1807.585981, 1712.473955)"><g><path d="M 32.375 0 L 16.65625 0 L 16.65625 -103.75 L 32.375 -103.75 Z M 15.328125 -131.875 C 15.328125 -135.46875 16.210938 -138.097656 17.984375 -139.765625 C 19.753906 -141.441406 21.960938 -142.28125 24.609375 -142.28125 C 27.140625 -142.28125 29.316406 -141.425781 31.140625 -139.71875 C 32.972656 -138.019531 33.890625 -135.40625 33.890625 -131.875 C 33.890625 -128.332031 32.972656 -125.691406 31.140625 -123.953125 C 29.316406 -122.222656 27.140625 -121.359375 24.609375 -121.359375 C 21.960938 -121.359375 19.753906 -122.222656 17.984375 -123.953125 C 16.210938 -125.691406 15.328125 -128.332031 15.328125 -131.875 Z M 15.328125 -131.875 "/></g></g></g><g fill="#101011" fill-opacity="1"><g transform="translate(1856.619265, 1712.473955)"><g><path d="M 50.171875 -11.078125 C 52.953125 -11.078125 55.632812 -11.28125 58.21875 -11.6875 C 60.800781 -12.101562 62.851562 -12.53125 64.375 -12.96875 L 64.375 -0.953125 C 62.664062 -0.128906 60.15625 0.546875 56.84375 1.078125 C 53.53125 1.617188 50.550781 1.890625 47.90625 1.890625 C 27.832031 1.890625 17.796875 -8.675781 17.796875 -29.8125 L 17.796875 -91.546875 L 2.9375 -91.546875 L 2.9375 -99.109375 L 17.796875 -105.640625 L 24.421875 -127.796875 L 33.515625 -127.796875 L 33.515625 -103.75 L 63.609375 -103.75 L 63.609375 -91.546875 L 33.515625 -91.546875 L 33.515625 -30.484375 C 33.515625 -24.234375 34.992188 -19.4375 37.953125 -16.09375 C 40.921875 -12.75 44.992188 -11.078125 50.171875 -11.078125 Z M 50.171875 -11.078125 "/></g></g></g><g fill="#101011" fill-opacity="1"><g transform="translate(1925.057658, 1712.473955)"><g><path d="M 80.46875 0 L 77.34375 -14.765625 L 76.578125 -14.765625 C 71.410156 -8.265625 66.253906 -3.863281 61.109375 -1.5625 C 55.960938 0.738281 49.539062 1.890625 41.84375 1.890625 C 31.550781 1.890625 23.488281 -0.757812 17.65625 -6.0625 C 11.820312 -11.363281 8.90625 -18.90625 8.90625 -28.6875 C 8.90625 -49.632812 25.660156 -60.613281 59.171875 -61.625 L 76.78125 -62.1875 L 76.78125 -68.625 C 76.78125 -76.769531 75.023438 -82.78125 71.515625 -86.65625 C 68.015625 -90.539062 62.414062 -92.484375 54.71875 -92.484375 C 46.070312 -92.484375 36.289062 -89.832031 25.375 -84.53125 L 20.546875 -96.5625 C 25.648438 -99.332031 31.25 -101.503906 37.34375 -103.078125 C 43.4375 -104.660156 49.539062 -105.453125 55.65625 -105.453125 C 68.03125 -105.453125 77.195312 -102.707031 83.15625 -97.21875 C 89.125 -91.726562 92.109375 -82.925781 92.109375 -70.8125 L 92.109375 0 Z M 44.96875 -11.078125 C 54.75 -11.078125 62.429688 -13.757812 68.015625 -19.125 C 73.597656 -24.488281 76.390625 -32 76.390625 -41.65625 L 76.390625 -51.03125 L 60.6875 -50.359375 C 48.1875 -49.921875 39.175781 -47.976562 33.65625 -44.53125 C 28.132812 -41.09375 25.375 -35.75 25.375 -28.5 C 25.375 -22.8125 27.09375 -18.484375 30.53125 -15.515625 C 33.96875 -12.554688 38.78125 -11.078125 44.96875 -11.078125 Z M 44.96875 -11.078125 "/></g></g></g><g fill="#101011" fill-opacity="1"><g transform="translate(2032.874129, 1712.473955)"><g/></g></g><g fill="#101011" fill-opacity="1"><g transform="translate(2083.232637, 1712.473955)"><g><path d="M 64.9375 1.890625 C 58.1875 1.890625 52.019531 0.644531 46.4375 -1.84375 C 40.851562 -4.332031 36.164062 -8.164062 32.375 -13.34375 L 31.234375 -13.34375 C 31.992188 -7.289062 32.375 -1.550781 32.375 3.875 L 32.375 46.578125 L 16.65625 46.578125 L 16.65625 -103.75 L 29.4375 -103.75 L 31.625 -89.546875 L 32.375 -89.546875 C 36.414062 -95.234375 41.117188 -99.335938 46.484375 -101.859375 C 51.847656 -104.378906 58 -105.640625 64.9375 -105.640625 C 78.695312 -105.640625 89.316406 -100.9375 96.796875 -91.53125 C 104.273438 -82.132812 108.015625 -68.945312 108.015625 -51.96875 C 108.015625 -34.925781 104.210938 -21.6875 96.609375 -12.25 C 89.003906 -2.820312 78.445312 1.890625 64.9375 1.890625 Z M 62.671875 -92.296875 C 52.066406 -92.296875 44.394531 -89.359375 39.65625 -83.484375 C 34.925781 -77.617188 32.5 -68.28125 32.375 -55.46875 L 32.375 -51.96875 C 32.375 -37.394531 34.800781 -26.96875 39.65625 -20.6875 C 44.519531 -14.40625 52.316406 -11.265625 63.046875 -11.265625 C 72.003906 -11.265625 79.023438 -14.890625 84.109375 -22.140625 C 89.191406 -29.398438 91.734375 -39.40625 91.734375 -52.15625 C 91.734375 -65.09375 89.191406 -75.015625 84.109375 -81.921875 C 79.023438 -88.835938 71.878906 -92.296875 62.671875 -92.296875 Z M 62.671875 -92.296875 "/></g></g></g><g fill="#101011" fill-opacity="1"><g transform="translate(2202.029537, 1712.473955)"><g><path d="M 80.46875 0 L 77.34375 -14.765625 L 76.578125 -14.765625 C 71.410156 -8.265625 66.253906 -3.863281 61.109375 -1.5625 C 55.960938 0.738281 49.539062 1.890625 41.84375 1.890625 C 31.550781 1.890625 23.488281 -0.757812 17.65625 -6.0625 C 11.820312 -11.363281 8.90625 -18.90625 8.90625 -28.6875 C 8.90625 -49.632812 25.660156 -60.613281 59.171875 -61.625 L 76.78125 -62.1875 L 76.78125 -68.625 C 76.78125 -76.769531 75.023438 -82.78125 71.515625 -86.65625 C 68.015625 -90.539062 62.414062 -92.484375 54.71875 -92.484375 C 46.070312 -92.484375 36.289062 -89.832031 25.375 -84.53125 L 20.546875 -96.5625 C 25.648438 -99.332031 31.25 -101.503906 37.34375 -103.078125 C 43.4375 -104.660156 49.539062 -105.453125 55.65625 -105.453125 C 68.03125 -105.453125 77.195312 -102.707031 83.15625 -97.21875 C 89.125 -91.726562 92.109375 -82.925781 92.109375 -70.8125 L 92.109375 0 Z M 44.96875 -11.078125 C 54.75 -11.078125 62.429688 -13.757812 68.015625 -19.125 C 73.597656 -24.488281 76.390625 -32 76.390625 -41.65625 L 76.390625 -51.03125 L 60.6875 -50.359375 C 48.1875 -49.921875 39.175781 -47.976562 33.65625 -44.53125 C 28.132812 -41.09375 25.375 -35.75 25.375 -28.5 C 25.375 -22.8125 27.09375 -18.484375 30.53125 -15.515625 C 33.96875 -12.554688 38.78125 -11.078125 44.96875 -11.078125 Z M 44.96875 -11.078125 "/></g></g></g><g fill="#101011" fill-opacity="1"><g transform="translate(2309.846102, 1712.473955)"><g><path d="M 64 -105.640625 C 68.601562 -105.640625 72.734375 -105.265625 76.390625 -104.515625 L 74.21875 -89.9375 C 69.925781 -90.882812 66.140625 -91.359375 62.859375 -91.359375 C 54.460938 -91.359375 47.28125 -87.945312 41.3125 -81.125 C 35.351562 -74.3125 32.375 -65.820312 32.375 -55.65625 L 32.375 0 L 16.65625 0 L 16.65625 -103.75 L 29.625 -103.75 L 31.421875 -84.53125 L 32.1875 -84.53125 C 36.03125 -91.289062 40.664062 -96.5 46.09375 -100.15625 C 51.53125 -103.8125 57.5 -105.640625 64 -105.640625 Z M 64 -105.640625 "/></g></g></g><g fill="#101011" fill-opacity="1"><g transform="translate(2388.9809, 1712.473955)"><g><path d="M 80.46875 0 L 77.34375 -14.765625 L 76.578125 -14.765625 C 71.410156 -8.265625 66.253906 -3.863281 61.109375 -1.5625 C 55.960938 0.738281 49.539062 1.890625 41.84375 1.890625 C 31.550781 1.890625 23.488281 -0.757812 17.65625 -6.0625 C 11.820312 -11.363281 8.90625 -18.90625 8.90625 -28.6875 C 8.90625 -49.632812 25.660156 -60.613281 59.171875 -61.625 L 76.78125 -62.1875 L 76.78125 -68.625 C 76.78125 -76.769531 75.023438 -82.78125 71.515625 -86.65625 C 68.015625 -90.539062 62.414062 -92.484375 54.71875 -92.484375 C 46.070312 -92.484375 36.289062 -89.832031 25.375 -84.53125 L 20.546875 -96.5625 C 25.648438 -99.332031 31.25 -101.503906 37.34375 -103.078125 C 43.4375 -104.660156 49.539062 -105.453125 55.65625 -105.453125 C 68.03125 -105.453125 77.195312 -102.707031 83.15625 -97.21875 C 89.125 -91.726562 92.109375 -82.925781 92.109375 -70.8125 L 92.109375 0 Z M 44.96875 -11.078125 C 54.75 -11.078125 62.429688 -13.757812 68.015625 -19.125 C 73.597656 -24.488281 76.390625 -32 76.390625 -41.65625 L 76.390625 -51.03125 L 60.6875 -50.359375 C 48.1875 -49.921875 39.175781 -47.976562 33.65625 -44.53125 C 28.132812 -41.09375 25.375 -35.75 25.375 -28.5 C 25.375 -22.8125 27.09375 -18.484375 30.53125 -15.515625 C 33.96875 -12.554688 38.78125 -11.078125 44.96875 -11.078125 Z M 44.96875 -11.078125 "/></g></g></g><g fill="#101011" fill-opacity="1"><g transform="translate(2496.797372, 1712.473955)"><g/></g></g><g fill="#101011" fill-opacity="1"><g transform="translate(2547.15588, 1712.473955)"><g><path d="M 106.21875 -51.96875 C 106.21875 -35.050781 101.957031 -21.84375 93.4375 -12.34375 C 84.914062 -2.851562 73.144531 1.890625 58.125 1.890625 C 48.84375 1.890625 40.601562 -0.285156 33.40625 -4.640625 C 26.21875 -8.992188 20.664062 -15.238281 16.75 -23.375 C 12.84375 -31.519531 10.890625 -41.050781 10.890625 -51.96875 C 10.890625 -68.882812 15.113281 -82.054688 23.5625 -91.484375 C 32.019531 -100.921875 43.757812 -105.640625 58.78125 -105.640625 C 73.300781 -105.640625 84.835938 -100.8125 93.390625 -91.15625 C 101.941406 -81.5 106.21875 -68.4375 106.21875 -51.96875 Z M 27.171875 -51.96875 C 27.171875 -38.71875 29.820312 -28.617188 35.125 -21.671875 C 40.425781 -14.734375 48.21875 -11.265625 58.5 -11.265625 C 68.789062 -11.265625 76.601562 -14.71875 81.9375 -21.625 C 87.269531 -28.539062 89.9375 -38.65625 89.9375 -51.96875 C 89.9375 -65.15625 87.269531 -75.171875 81.9375 -82.015625 C 76.601562 -88.867188 68.726562 -92.296875 58.3125 -92.296875 C 48.03125 -92.296875 40.269531 -88.921875 35.03125 -82.171875 C 29.789062 -75.421875 27.171875 -65.351562 27.171875 -51.96875 Z M 27.171875 -51.96875 "/></g></g></g><g fill="#101011" fill-opacity="1"><g transform="translate(2664.248833, 1712.473955)"><g><path d="M 83.59375 -28.3125 C 83.59375 -18.65625 79.992188 -11.207031 72.796875 -5.96875 C 65.597656 -0.726562 55.5 1.890625 42.5 1.890625 C 28.75 1.890625 18.019531 -0.285156 10.3125 -4.640625 L 10.3125 -19.21875 C 15.300781 -16.695312 20.648438 -14.707031 26.359375 -13.25 C 32.078125 -11.800781 37.585938 -11.078125 42.890625 -11.078125 C 51.085938 -11.078125 57.394531 -12.382812 61.8125 -15 C 66.226562 -17.625 68.4375 -21.617188 68.4375 -26.984375 C 68.4375 -31.015625 66.6875 -34.46875 63.1875 -37.34375 C 59.6875 -40.21875 52.851562 -43.609375 42.6875 -47.515625 C 33.03125 -51.117188 26.164062 -54.257812 22.09375 -56.9375 C 18.03125 -59.625 15.003906 -62.671875 13.015625 -66.078125 C 11.023438 -69.484375 10.03125 -73.550781 10.03125 -78.28125 C 10.03125 -86.738281 13.46875 -93.410156 20.34375 -98.296875 C 27.226562 -103.191406 36.664062 -105.640625 48.65625 -105.640625 C 59.820312 -105.640625 70.738281 -103.367188 81.40625 -98.828125 L 75.828125 -86.046875 C 65.410156 -90.335938 55.972656 -92.484375 47.515625 -92.484375 C 40.078125 -92.484375 34.460938 -91.316406 30.671875 -88.984375 C 26.878906 -86.648438 24.984375 -83.429688 24.984375 -79.328125 C 24.984375 -76.554688 25.691406 -74.191406 27.109375 -72.234375 C 28.535156 -70.273438 30.828125 -68.410156 33.984375 -66.640625 C 37.140625 -64.878906 43.195312 -62.328125 52.15625 -58.984375 C 64.46875 -54.492188 72.785156 -49.976562 77.109375 -45.4375 C 81.429688 -40.894531 83.59375 -35.1875 83.59375 -28.3125 Z M 83.59375 -28.3125 "/></g></g></g><g fill="#101011" fill-opacity="1"><g transform="translate(2756.730662, 1712.473955)"><g/></g></g><g fill="#101011" fill-opacity="1"><g transform="translate(2807.08917, 1712.473955)"><g><path d="M 80.46875 0 L 77.34375 -14.765625 L 76.578125 -14.765625 C 71.410156 -8.265625 66.253906 -3.863281 61.109375 -1.5625 C 55.960938 0.738281 49.539062 1.890625 41.84375 1.890625 C 31.550781 1.890625 23.488281 -0.757812 17.65625 -6.0625 C 11.820312 -11.363281 8.90625 -18.90625 8.90625 -28.6875 C 8.90625 -49.632812 25.660156 -60.613281 59.171875 -61.625 L 76.78125 -62.1875 L 76.78125 -68.625 C 76.78125 -76.769531 75.023438 -82.78125 71.515625 -86.65625 C 68.015625 -90.539062 62.414062 -92.484375 54.71875 -92.484375 C 46.070312 -92.484375 36.289062 -89.832031 25.375 -84.53125 L 20.546875 -96.5625 C 25.648438 -99.332031 31.25 -101.503906 37.34375 -103.078125 C 43.4375 -104.660156 49.539062 -105.453125 55.65625 -105.453125 C 68.03125 -105.453125 77.195312 -102.707031 83.15625 -97.21875 C 89.125 -91.726562 92.109375 -82.925781 92.109375 -70.8125 L 92.109375 0 Z M 44.96875 -11.078125 C 54.75 -11.078125 62.429688 -13.757812 68.015625 -19.125 C 73.597656 -24.488281 76.390625 -32 76.390625 -41.65625 L 76.390625 -51.03125 L 60.6875 -50.359375 C 48.1875 -49.921875 39.175781 -47.976562 33.65625 -44.53125 C 28.132812 -41.09375 25.375 -35.75 25.375 -28.5 C 25.375 -22.8125 27.09375 -18.484375 30.53125 -15.515625 C 33.96875 -12.554688 38.78125 -11.078125 44.96875 -11.078125 Z M 44.96875 -11.078125 "/></g></g></g><g fill="#101011" fill-opacity="1"><g transform="translate(2914.905642, 1712.473955)"><g><path d="M 148.90625 0 L 148.90625 -67.5 C 148.90625 -75.757812 147.140625 -81.957031 143.609375 -86.09375 C 140.078125 -90.226562 134.585938 -92.296875 127.140625 -92.296875 C 117.359375 -92.296875 110.128906 -89.488281 105.453125 -83.875 C 100.785156 -78.257812 98.453125 -69.613281 98.453125 -57.9375 L 98.453125 0 L 82.734375 0 L 82.734375 -67.5 C 82.734375 -75.757812 80.96875 -81.957031 77.4375 -86.09375 C 73.90625 -90.226562 68.382812 -92.296875 60.875 -92.296875 C 51.03125 -92.296875 43.816406 -89.34375 39.234375 -83.4375 C 34.660156 -77.539062 32.375 -67.875 32.375 -54.4375 L 32.375 0 L 16.65625 0 L 16.65625 -103.75 L 29.4375 -103.75 L 32 -89.546875 L 32.75 -89.546875 C 35.71875 -94.597656 39.898438 -98.539062 45.296875 -101.375 C 50.691406 -104.21875 56.734375 -105.640625 63.421875 -105.640625 C 79.640625 -105.640625 90.242188 -99.769531 95.234375 -88.03125 L 95.984375 -88.03125 C 99.078125 -93.46875 103.554688 -97.757812 109.421875 -100.90625 C 115.296875 -104.0625 121.988281 -105.640625 129.5 -105.640625 C 141.238281 -105.640625 150.023438 -102.625 155.859375 -96.59375 C 161.703125 -90.570312 164.625 -80.9375 164.625 -67.6875 L 164.625 0 Z M 148.90625 0 "/></g></g></g><g fill="#101011" fill-opacity="1"><g transform="translate(3095.230706, 1712.473955)"><g><path d="M 80.46875 0 L 77.34375 -14.765625 L 76.578125 -14.765625 C 71.410156 -8.265625 66.253906 -3.863281 61.109375 -1.5625 C 55.960938 0.738281 49.539062 1.890625 41.84375 1.890625 C 31.550781 1.890625 23.488281 -0.757812 17.65625 -6.0625 C 11.820312 -11.363281 8.90625 -18.90625 8.90625 -28.6875 C 8.90625 -49.632812 25.660156 -60.613281 59.171875 -61.625 L 76.78125 -62.1875 L 76.78125 -68.625 C 76.78125 -76.769531 75.023438 -82.78125 71.515625 -86.65625 C 68.015625 -90.539062 62.414062 -92.484375 54.71875 -92.484375 C 46.070312 -92.484375 36.289062 -89.832031 25.375 -84.53125 L 20.546875 -96.5625 C 25.648438 -99.332031 31.25 -101.503906 37.34375 -103.078125 C 43.4375 -104.660156 49.539062 -105.453125 55.65625 -105.453125 C 68.03125 -105.453125 77.195312 -102.707031 83.15625 -97.21875 C 89.125 -91.726562 92.109375 -82.925781 92.109375 -70.8125 L 92.109375 0 Z M 44.96875 -11.078125 C 54.75 -11.078125 62.429688 -13.757812 68.015625 -19.125 C 73.597656 -24.488281 76.390625 -32 76.390625 -41.65625 L 76.390625 -51.03125 L 60.6875 -50.359375 C 48.1875 -49.921875 39.175781 -47.976562 33.65625 -44.53125 C 28.132812 -41.09375 25.375 -35.75 25.375 -28.5 C 25.375 -22.8125 27.09375 -18.484375 30.53125 -15.515625 C 33.96875 -12.554688 38.78125 -11.078125 44.96875 -11.078125 Z M 44.96875 -11.078125 "/></g></g></g><g fill="#101011" fill-opacity="1"><g transform="translate(3203.047178, 1712.473955)"><g><path d="M 87.65625 0 L 87.65625 -67.125 C 87.65625 -75.570312 85.726562 -81.878906 81.875 -86.046875 C 78.03125 -90.210938 72.003906 -92.296875 63.796875 -92.296875 C 52.941406 -92.296875 44.988281 -89.359375 39.9375 -83.484375 C 34.894531 -77.617188 32.375 -67.9375 32.375 -54.4375 L 32.375 0 L 16.65625 0 L 16.65625 -103.75 L 29.4375 -103.75 L 32 -89.546875 L 32.75 -89.546875 C 35.96875 -94.660156 40.476562 -98.617188 46.28125 -101.421875 C 52.09375 -104.234375 58.566406 -105.640625 65.703125 -105.640625 C 78.191406 -105.640625 87.59375 -102.625 93.90625 -96.59375 C 100.21875 -90.570312 103.375 -80.9375 103.375 -67.6875 L 103.375 0 Z M 87.65625 0 "/></g></g></g><g fill="#101011" fill-opacity="1"><g transform="translate(3322.033488, 1712.473955)"><g><path d="M 50.171875 -11.078125 C 52.953125 -11.078125 55.632812 -11.28125 58.21875 -11.6875 C 60.800781 -12.101562 62.851562 -12.53125 64.375 -12.96875 L 64.375 -0.953125 C 62.664062 -0.128906 60.15625 0.546875 56.84375 1.078125 C 53.53125 1.617188 50.550781 1.890625 47.90625 1.890625 C 27.832031 1.890625 17.796875 -8.675781 17.796875 -29.8125 L 17.796875 -91.546875 L 2.9375 -91.546875 L 2.9375 -99.109375 L 17.796875 -105.640625 L 24.421875 -127.796875 L 33.515625 -127.796875 L 33.515625 -103.75 L 63.609375 -103.75 L 63.609375 -91.546875 L 33.515625 -91.546875 L 33.515625 -30.484375 C 33.515625 -24.234375 34.992188 -19.4375 37.953125 -16.09375 C 40.921875 -12.75 44.992188 -11.078125 50.171875 -11.078125 Z M 50.171875 -11.078125 "/></g></g></g><g fill="#101011" fill-opacity="1"><g transform="translate(3390.471881, 1712.473955)"><g><path d="M 60.484375 1.890625 C 45.148438 1.890625 33.050781 -2.773438 24.1875 -12.109375 C 15.320312 -21.453125 10.890625 -34.425781 10.890625 -51.03125 C 10.890625 -67.75 15.003906 -81.03125 23.234375 -90.875 C 31.472656 -100.71875 42.535156 -105.640625 56.421875 -105.640625 C 69.421875 -105.640625 79.707031 -101.363281 87.28125 -92.8125 C 94.851562 -84.269531 98.640625 -72.992188 98.640625 -58.984375 L 98.640625 -49.03125 L 27.171875 -49.03125 C 27.484375 -36.851562 30.554688 -27.609375 36.390625 -21.296875 C 42.234375 -14.984375 50.457031 -11.828125 61.0625 -11.828125 C 72.226562 -11.828125 83.269531 -14.164062 94.1875 -18.84375 L 94.1875 -4.828125 C 88.632812 -2.429688 83.378906 -0.710938 78.421875 0.328125 C 73.472656 1.367188 67.492188 1.890625 60.484375 1.890625 Z M 56.234375 -92.484375 C 47.898438 -92.484375 41.253906 -89.769531 36.296875 -84.34375 C 31.347656 -78.914062 28.429688 -71.40625 27.546875 -61.8125 L 81.796875 -61.8125 C 81.796875 -71.71875 79.582031 -79.304688 75.15625 -84.578125 C 70.738281 -89.847656 64.429688 -92.484375 56.234375 -92.484375 Z M 56.234375 -92.484375 "/></g></g></g><g fill="#101011" fill-opacity="1"><g transform="translate(3499.234854, 1712.473955)"><g><path d="M 83.59375 -28.3125 C 83.59375 -18.65625 79.992188 -11.207031 72.796875 -5.96875 C 65.597656 -0.726562 55.5 1.890625 42.5 1.890625 C 28.75 1.890625 18.019531 -0.285156 10.3125 -4.640625 L 10.3125 -19.21875 C 15.300781 -16.695312 20.648438 -14.707031 26.359375 -13.25 C 32.078125 -11.800781 37.585938 -11.078125 42.890625 -11.078125 C 51.085938 -11.078125 57.394531 -12.382812 61.8125 -15 C 66.226562 -17.625 68.4375 -21.617188 68.4375 -26.984375 C 68.4375 -31.015625 66.6875 -34.46875 63.1875 -37.34375 C 59.6875 -40.21875 52.851562 -43.609375 42.6875 -47.515625 C 33.03125 -51.117188 26.164062 -54.257812 22.09375 -56.9375 C 18.03125 -59.625 15.003906 -62.671875 13.015625 -66.078125 C 11.023438 -69.484375 10.03125 -73.550781 10.03125 -78.28125 C 10.03125 -86.738281 13.46875 -93.410156 20.34375 -98.296875 C 27.226562 -103.191406 36.664062 -105.640625 48.65625 -105.640625 C 59.820312 -105.640625 70.738281 -103.367188 81.40625 -98.828125 L 75.828125 -86.046875 C 65.410156 -90.335938 55.972656 -92.484375 47.515625 -92.484375 C 40.078125 -92.484375 34.460938 -91.316406 30.671875 -88.984375 C 26.878906 -86.648438 24.984375 -83.429688 24.984375 -79.328125 C 24.984375 -76.554688 25.691406 -74.191406 27.109375 -72.234375 C 28.535156 -70.273438 30.828125 -68.410156 33.984375 -66.640625 C 37.140625 -64.878906 43.195312 -62.328125 52.15625 -58.984375 C 64.46875 -54.492188 72.785156 -49.976562 77.109375 -45.4375 C 81.429688 -40.894531 83.59375 -35.1875 83.59375 -28.3125 Z M 83.59375 -28.3125 "/></g></g></g><g fill="#101011" fill-opacity="1"><g transform="translate(3591.716684, 1712.473955)"><g/></g></g><g fill="#101011" fill-opacity="1"><g transform="translate(3642.075192, 1712.473955)"><g><path d="M 87.28125 -13.921875 L 86.421875 -13.921875 C 79.171875 -3.378906 68.316406 1.890625 53.859375 1.890625 C 40.296875 1.890625 29.742188 -2.742188 22.203125 -12.015625 C 14.660156 -21.296875 10.890625 -34.488281 10.890625 -51.59375 C 10.890625 -68.695312 14.675781 -81.976562 22.25 -91.4375 C 29.820312 -100.90625 40.359375 -105.640625 53.859375 -105.640625 C 67.929688 -105.640625 78.722656 -100.53125 86.234375 -90.3125 L 87.46875 -90.3125 L 86.8125 -97.796875 L 86.421875 -105.078125 L 86.421875 -147.296875 L 102.140625 -147.296875 L 102.140625 0 L 89.359375 0 Z M 55.859375 -11.265625 C 66.585938 -11.265625 74.363281 -14.179688 79.1875 -20.015625 C 84.007812 -25.859375 86.421875 -35.28125 86.421875 -48.28125 L 86.421875 -51.59375 C 86.421875 -66.300781 83.972656 -76.789062 79.078125 -83.0625 C 74.191406 -89.34375 66.382812 -92.484375 55.65625 -92.484375 C 46.445312 -92.484375 39.394531 -88.898438 34.5 -81.734375 C 29.613281 -74.578125 27.171875 -64.46875 27.171875 -51.40625 C 27.171875 -38.15625 29.597656 -28.148438 34.453125 -21.390625 C 39.316406 -14.640625 46.453125 -11.265625 55.859375 -11.265625 Z M 55.859375 -11.265625 "/></g></g></g><g fill="#101011" fill-opacity="1"><g transform="translate(3760.872091, 1712.473955)"><g><path d="M 60.484375 1.890625 C 45.148438 1.890625 33.050781 -2.773438 24.1875 -12.109375 C 15.320312 -21.453125 10.890625 -34.425781 10.890625 -51.03125 C 10.890625 -67.75 15.003906 -81.03125 23.234375 -90.875 C 31.472656 -100.71875 42.535156 -105.640625 56.421875 -105.640625 C 69.421875 -105.640625 79.707031 -101.363281 87.28125 -92.8125 C 94.851562 -84.269531 98.640625 -72.992188 98.640625 -58.984375 L 98.640625 -49.03125 L 27.171875 -49.03125 C 27.484375 -36.851562 30.554688 -27.609375 36.390625 -21.296875 C 42.234375 -14.984375 50.457031 -11.828125 61.0625 -11.828125 C 72.226562 -11.828125 83.269531 -14.164062 94.1875 -18.84375 L 94.1875 -4.828125 C 88.632812 -2.429688 83.378906 -0.710938 78.421875 0.328125 C 73.472656 1.367188 67.492188 1.890625 60.484375 1.890625 Z M 56.234375 -92.484375 C 47.898438 -92.484375 41.253906 -89.769531 36.296875 -84.34375 C 31.347656 -78.914062 28.429688 -71.40625 27.546875 -61.8125 L 81.796875 -61.8125 C 81.796875 -71.71875 79.582031 -79.304688 75.15625 -84.578125 C 70.738281 -89.847656 64.429688 -92.484375 56.234375 -92.484375 Z M 56.234375 -92.484375 "/></g></g></g><g fill="#101011" fill-opacity="1"><g transform="translate(3869.635064, 1712.473955)"><g/></g></g><g fill="#101011" fill-opacity="1"><g transform="translate(3919.993395, 1712.473955)"><g><path d="M 32.375 0 L 16.65625 0 L 16.65625 -147.296875 L 32.375 -147.296875 Z M 32.375 0 "/></g></g></g><g fill="#101011" fill-opacity="1"><g transform="translate(3969.026768, 1712.473955)"><g><path d="M 32.375 0 L 16.65625 0 L 16.65625 -103.75 L 32.375 -103.75 Z M 15.328125 -131.875 C 15.328125 -135.46875 16.210938 -138.097656 17.984375 -139.765625 C 19.753906 -141.441406 21.960938 -142.28125 24.609375 -142.28125 C 27.140625 -142.28125 29.316406 -141.425781 31.140625 -139.71875 C 32.972656 -138.019531 33.890625 -135.40625 33.890625 -131.875 C 33.890625 -128.332031 32.972656 -125.691406 31.140625 -123.953125 C 29.316406 -122.222656 27.140625 -121.359375 24.609375 -121.359375 C 21.960938 -121.359375 19.753906 -122.222656 17.984375 -123.953125 C 16.210938 -125.691406 15.328125 -128.332031 15.328125 -131.875 Z M 15.328125 -131.875 "/></g></g></g><g fill="#101011" fill-opacity="1"><g transform="translate(4018.060141, 1712.473955)"><g><path d="M 39.375 0 L 0 -103.75 L 16.84375 -103.75 L 39.1875 -42.21875 C 44.238281 -27.832031 47.207031 -18.492188 48.09375 -14.203125 L 48.84375 -14.203125 C 49.539062 -17.546875 51.734375 -24.46875 55.421875 -34.96875 C 59.117188 -45.476562 67.40625 -68.40625 80.28125 -103.75 L 97.125 -103.75 L 57.75 0 Z M 39.375 0 "/></g></g></g><g fill="#101011" fill-opacity="1"><g transform="translate(4115.180032, 1712.473955)"><g><path d="M 64 -105.640625 C 68.601562 -105.640625 72.734375 -105.265625 76.390625 -104.515625 L 74.21875 -89.9375 C 69.925781 -90.882812 66.140625 -91.359375 62.859375 -91.359375 C 54.460938 -91.359375 47.28125 -87.945312 41.3125 -81.125 C 35.351562 -74.3125 32.375 -65.820312 32.375 -55.65625 L 32.375 0 L 16.65625 0 L 16.65625 -103.75 L 29.625 -103.75 L 31.421875 -84.53125 L 32.1875 -84.53125 C 36.03125 -91.289062 40.664062 -96.5 46.09375 -100.15625 C 51.53125 -103.8125 57.5 -105.640625 64 -105.640625 Z M 64 -105.640625 "/></g></g></g><g fill="#101011" fill-opacity="1"><g transform="translate(4194.315008, 1712.473955)"><g><path d="M 106.21875 -51.96875 C 106.21875 -35.050781 101.957031 -21.84375 93.4375 -12.34375 C 84.914062 -2.851562 73.144531 1.890625 58.125 1.890625 C 48.84375 1.890625 40.601562 -0.285156 33.40625 -4.640625 C 26.21875 -8.992188 20.664062 -15.238281 16.75 -23.375 C 12.84375 -31.519531 10.890625 -41.050781 10.890625 -51.96875 C 10.890625 -68.882812 15.113281 -82.054688 23.5625 -91.484375 C 32.019531 -100.921875 43.757812 -105.640625 58.78125 -105.640625 C 73.300781 -105.640625 84.835938 -100.8125 93.390625 -91.15625 C 101.941406 -81.5 106.21875 -68.4375 106.21875 -51.96875 Z M 27.171875 -51.96875 C 27.171875 -38.71875 29.820312 -28.617188 35.125 -21.671875 C 40.425781 -14.734375 48.21875 -11.265625 58.5 -11.265625 C 68.789062 -11.265625 76.601562 -14.71875 81.9375 -21.625 C 87.269531 -28.539062 89.9375 -38.65625 89.9375 -51.96875 C 89.9375 -65.15625 87.269531 -75.171875 81.9375 -82.015625 C 76.601562 -88.867188 68.726562 -92.296875 58.3125 -92.296875 C 48.03125 -92.296875 40.269531 -88.921875 35.03125 -82.171875 C 29.789062 -75.421875 27.171875 -65.351562 27.171875 -51.96875 Z M 27.171875 -51.96875 "/></g></g></g><g fill="#101011" fill-opacity="1"><g transform="translate(4311.40796, 1712.473955)"><g><path d="M 83.59375 -28.3125 C 83.59375 -18.65625 79.992188 -11.207031 72.796875 -5.96875 C 65.597656 -0.726562 55.5 1.890625 42.5 1.890625 C 28.75 1.890625 18.019531 -0.285156 10.3125 -4.640625 L 10.3125 -19.21875 C 15.300781 -16.695312 20.648438 -14.707031 26.359375 -13.25 C 32.078125 -11.800781 37.585938 -11.078125 42.890625 -11.078125 C 51.085938 -11.078125 57.394531 -12.382812 61.8125 -15 C 66.226562 -17.625 68.4375 -21.617188 68.4375 -26.984375 C 68.4375 -31.015625 66.6875 -34.46875 63.1875 -37.34375 C 59.6875 -40.21875 52.851562 -43.609375 42.6875 -47.515625 C 33.03125 -51.117188 26.164062 -54.257812 22.09375 -56.9375 C 18.03125 -59.625 15.003906 -62.671875 13.015625 -66.078125 C 11.023438 -69.484375 10.03125 -73.550781 10.03125 -78.28125 C 10.03125 -86.738281 13.46875 -93.410156 20.34375 -98.296875 C 27.226562 -103.191406 36.664062 -105.640625 48.65625 -105.640625 C 59.820312 -105.640625 70.738281 -103.367188 81.40625 -98.828125 L 75.828125 -86.046875 C 65.410156 -90.335938 55.972656 -92.484375 47.515625 -92.484375 C 40.078125 -92.484375 34.460938 -91.316406 30.671875 -88.984375 C 26.878906 -86.648438 24.984375 -83.429688 24.984375 -79.328125 C 24.984375 -76.554688 25.691406 -74.191406 27.109375 -72.234375 C 28.535156 -70.273438 30.828125 -68.410156 33.984375 -66.640625 C 37.140625 -64.878906 43.195312 -62.328125 52.15625 -58.984375 C 64.46875 -54.492188 72.785156 -49.976562 77.109375 -45.4375 C 81.429688 -40.894531 83.59375 -35.1875 83.59375 -28.3125 Z M 83.59375 -28.3125 "/></g></g></g><g fill="#101011" fill-opacity="1"><g transform="translate(1305.699157, 1203.488825)"><g><path d="M 91.199219 0 L 204.109375 0 L 204.109375 -217.140625 L 286.625 -217.140625 L 286.625 -312.679688 L 8.6875 -312.679688 L 8.6875 -217.140625 L 91.199219 -217.140625 Z M 91.199219 0 "/></g></g></g><g fill="#101011" fill-opacity="1"><g transform="translate(1600.993677, 1203.488825)"><g><path d="M 13.027344 0 L 112.914062 0 L 112.914062 -121.597656 C 112.914062 -138.101562 121.164062 -147.65625 134.625 -147.65625 C 145.484375 -147.65625 151.996094 -140.273438 151.996094 -127.679688 L 151.996094 0 L 251.882812 0 L 251.882812 -165.027344 C 251.882812 -205.847656 227.5625 -230.167969 186.738281 -230.167969 C 154.167969 -230.167969 126.808594 -210.191406 113.347656 -176.75 L 112.914062 -176.75 L 112.914062 -325.707031 L 13.027344 -325.707031 Z M 13.027344 0 "/></g></g></g><g fill="#101011" fill-opacity="1"><g transform="translate(1865.890234, 1203.488825)"><g><path d="M 151.996094 8.6875 C 198.03125 8.6875 240.589844 -6.949219 261.4375 -30.832031 L 214.96875 -78.171875 C 200.636719 -66.011719 177.621094 -58.628906 156.773438 -58.628906 C 130.71875 -58.628906 112.042969 -68.617188 109.4375 -86.855469 L 252.75 -86.855469 C 256.222656 -96.410156 258.394531 -111.175781 258.394531 -124.636719 C 258.394531 -191.082031 209.757812 -234.511719 135.0625 -234.511719 C 56.890625 -234.511719 6.078125 -186.304688 6.515625 -112.914062 C 6.515625 -39.519531 65.140625 8.6875 151.996094 8.6875 Z M 108.136719 -134.625 C 109.4375 -155.472656 120.296875 -169.367188 135.0625 -169.367188 C 149.390625 -169.367188 158.511719 -155.472656 158.511719 -134.625 Z M 108.136719 -134.625 "/></g></g></g><g fill="#101011" fill-opacity="1"><g transform="translate(2133.826613, 1203.488825)"><g/></g></g><g fill="#101011" fill-opacity="1"><g transform="translate(2207.65022, 1203.488825)"><g><path d="M 21.714844 0 L 204.109375 0 C 279.675781 0 321.367188 -30.832031 321.367188 -86.421875 C 321.367188 -125.941406 299.652344 -151.5625 260.566406 -158.078125 L 260.566406 -158.945312 C 297.046875 -167.632812 317.023438 -191.515625 317.023438 -226.257812 C 317.023438 -281.847656 274.03125 -312.679688 196.726562 -312.679688 L 21.714844 -312.679688 Z M 134.625 -188.910156 L 134.625 -234.511719 L 178.054688 -234.511719 C 194.992188 -234.511719 204.109375 -226.695312 204.109375 -212.796875 C 204.109375 -197.597656 194.992188 -188.910156 178.054688 -188.910156 Z M 134.625 -78.171875 L 134.625 -125.941406 L 182.398438 -125.941406 C 199.332031 -125.941406 208.453125 -116.820312 208.453125 -99.882812 C 208.453125 -85.988281 199.332031 -78.171875 182.398438 -78.171875 Z M 134.625 -78.171875 "/></g></g></g><g fill="#101011" fill-opacity="1"><g transform="translate(2537.685289, 1203.488825)"><g><path d="M 136.796875 8.6875 C 215.402344 8.6875 267.082031 -39.519531 267.082031 -112.914062 C 267.082031 -186.304688 215.402344 -234.511719 136.796875 -234.511719 C 58.191406 -234.511719 6.515625 -186.304688 6.515625 -112.914062 C 6.515625 -39.519531 58.191406 8.6875 136.796875 8.6875 Z M 136.796875 -71.65625 C 116.386719 -71.65625 104.226562 -86.855469 104.226562 -112.914062 C 104.226562 -138.96875 116.386719 -154.167969 136.796875 -154.167969 C 157.207031 -154.167969 169.367188 -138.96875 169.367188 -112.914062 C 169.367188 -86.855469 157.207031 -71.65625 136.796875 -71.65625 Z M 136.796875 -71.65625 "/></g></g></g><g fill="#101011" fill-opacity="1"><g transform="translate(2811.266938, 1203.488825)"><g><path d="M 136.796875 8.6875 C 215.402344 8.6875 267.082031 -39.519531 267.082031 -112.914062 C 267.082031 -186.304688 215.402344 -234.511719 136.796875 -234.511719 C 58.191406 -234.511719 6.515625 -186.304688 6.515625 -112.914062 C 6.515625 -39.519531 58.191406 8.6875 136.796875 8.6875 Z M 136.796875 -71.65625 C 116.386719 -71.65625 104.226562 -86.855469 104.226562 -112.914062 C 104.226562 -138.96875 116.386719 -154.167969 136.796875 -154.167969 C 157.207031 -154.167969 169.367188 -138.96875 169.367188 -112.914062 C 169.367188 -86.855469 157.207031 -71.65625 136.796875 -71.65625 Z M 136.796875 -71.65625 "/></g></g></g><g fill="#101011" fill-opacity="1"><g transform="translate(3084.848501, 1203.488825)"><g><path d="M 13.027344 0 L 112.914062 0 L 112.914062 -66.445312 L 131.152344 -85.117188 L 173.710938 0 L 280.542969 0 L 195.859375 -141.574219 L 279.675781 -225.824219 L 169.367188 -225.824219 L 113.347656 -164.589844 L 112.914062 -164.589844 L 112.914062 -325.707031 L 13.027344 -325.707031 Z M 13.027344 0 "/></g></g></g><g fill="#101011" fill-opacity="1"><g transform="translate(3365.378281, 1203.488825)"><g/></g></g><g fill="#101011" fill-opacity="1"><g transform="translate(3439.201887, 1203.488825)"><g><path d="M 183.699219 10.855469 C 280.976562 10.855469 347.421875 -45.164062 354.371094 -133.757812 L 249.710938 -144.613281 C 244.066406 -108.136719 218.875 -84.683594 185.4375 -84.683594 C 147.65625 -84.683594 123.769531 -112.476562 123.769531 -156.339844 C 123.769531 -200.203125 144.613281 -227.996094 177.1875 -227.996094 C 206.714844 -227.996094 222.785156 -208.019531 228.863281 -176.316406 L 330.921875 -201.941406 C 322.667969 -276.199219 262.738281 -323.539062 176.75 -323.539062 C 75.128906 -323.539062 10.855469 -258.394531 10.855469 -156.339844 C 10.855469 -54.285156 78.171875 10.855469 183.699219 10.855469 Z M 183.699219 10.855469 "/></g></g></g><g fill="#101011" fill-opacity="1"><g transform="translate(3800.069114, 1203.488825)"><g><path d="M 13.027344 0 L 112.914062 0 L 112.914062 -325.707031 L 13.027344 -325.707031 Z M 13.027344 0 "/></g></g></g><g fill="#101011" fill-opacity="1"><g transform="translate(3926.003461, 1203.488825)"><g><path d="M 78.171875 4.34375 C 110.742188 4.34375 138.535156 -15.632812 151.996094 -49.074219 L 152.433594 -49.074219 L 169.367188 0 L 251.882812 0 L 251.882812 -225.824219 L 151.996094 -225.824219 L 151.996094 -104.226562 C 151.996094 -87.722656 143.746094 -78.171875 130.285156 -78.171875 C 119.425781 -78.171875 112.914062 -85.554688 112.914062 -98.148438 L 112.914062 -225.824219 L 13.027344 -225.824219 L 13.027344 -60.800781 C 13.027344 -19.976562 37.347656 4.34375 78.171875 4.34375 Z M 78.171875 4.34375 "/></g></g></g><g fill="#101011" fill-opacity="1"><g transform="translate(4190.900019, 1203.488825)"><g><path d="M 182.398438 4.34375 C 234.511719 4.34375 269.253906 -39.953125 269.253906 -112.914062 C 269.253906 -185.871094 234.511719 -230.167969 182.398438 -230.167969 C 150.261719 -230.167969 125.941406 -212.796875 113.347656 -176.75 L 112.914062 -176.75 L 112.914062 -325.707031 L 13.027344 -325.707031 L 13.027344 0 L 95.542969 0 L 112.476562 -47.769531 L 112.914062 -47.769531 C 125.070312 -12.59375 149.390625 4.34375 182.398438 4.34375 Z M 138.96875 -78.171875 C 121.164062 -78.171875 108.570312 -92.9375 108.570312 -112.914062 C 108.570312 -132.890625 121.164062 -147.65625 138.96875 -147.65625 C 156.773438 -147.65625 169.367188 -132.890625 169.367188 -112.914062 C 169.367188 -92.9375 156.773438 -78.171875 138.96875 -78.171875 Z M 138.96875 -78.171875 "/></g></g></g><g clip-path="url(#id1)"><path fill="#000000" d="M 1125.601562 1230.75 L 901.894531 1230.75 C 876.253906 1230.75 855.164062 1210.15625 855.164062 1184.210938 C 855.164062 1158.265625 875.839844 1137.675781 901.894531 1137.675781 L 1125.601562 1137.675781 C 1130.566406 1137.675781 1134.289062 1141.378906 1134.289062 1146.324219 L 1134.289062 1221.6875 C 1134.289062 1227.042969 1130.566406 1230.75 1125.601562 1230.75 Z M 901.894531 1155.382812 C 885.765625 1155.382812 872.945312 1168.5625 872.945312 1184.210938 C 872.945312 1199.863281 886.179688 1213.039062 901.894531 1213.039062 L 1116.917969 1213.039062 L 1116.917969 1155.382812 Z M 901.894531 1155.382812 " fill-opacity="1" fill-rule="nonzero"/></g><g clip-path="url(#id2)"><path fill="#000000" d="M 863.851562 1193.273438 C 858.886719 1193.273438 855.164062 1189.566406 855.164062 1184.625 L 855.164062 906.632812 C 855.164062 880.6875 876.253906 860.09375 901.894531 860.09375 L 1125.601562 860.09375 C 1130.566406 860.09375 1134.289062 863.800781 1134.289062 868.742188 L 1134.289062 956.875 C 1134.289062 961.820312 1130.566406 965.527344 1125.601562 965.527344 C 1092.109375 965.527344 1064.402344 992.707031 1064.402344 1026.476562 C 1064.402344 1060.25 1091.695312 1087.429688 1125.601562 1087.429688 C 1130.566406 1087.429688 1134.289062 1091.136719 1134.289062 1096.078125 L 1134.289062 1146.734375 C 1134.289062 1151.675781 1130.566406 1155.382812 1125.601562 1155.382812 L 901.894531 1155.382812 C 885.765625 1155.382812 872.945312 1168.5625 872.945312 1184.210938 C 872.535156 1189.152344 868.8125 1193.273438 863.851562 1193.273438 Z M 901.894531 877.390625 C 885.765625 877.390625 872.945312 890.570312 872.945312 906.21875 L 872.945312 1148.382812 C 880.804688 1142.203125 891.140625 1138.085938 901.894531 1138.085938 L 1116.917969 1138.085938 L 1116.917969 1104.316406 C 1077.636719 1099.785156 1047.035156 1066.839844 1047.035156 1026.476562 C 1047.035156 986.117188 1077.636719 953.171875 1116.917969 948.640625 L 1116.917969 877.390625 Z M 901.894531 877.390625 " fill-opacity="1" fill-rule="nonzero"/></g><g clip-path="url(#id3)"><path fill="#000000" d="M 1125.601562 1104.726562 C 1082.183594 1104.726562 1047.035156 1069.722656 1047.035156 1026.476562 C 1047.035156 983.234375 1082.183594 948.226562 1125.601562 948.226562 C 1169.023438 948.226562 1204.171875 983.234375 1204.171875 1026.476562 C 1204.171875 1069.722656 1169.023438 1104.726562 1125.601562 1104.726562 Z M 1125.601562 965.9375 C 1092.109375 965.9375 1064.402344 993.117188 1064.402344 1026.890625 C 1064.402344 1060.660156 1091.695312 1087.839844 1125.601562 1087.839844 C 1159.511719 1087.839844 1186.804688 1060.25 1186.804688 1026.476562 C 1186.804688 992.707031 1159.097656 965.9375 1125.601562 965.9375 Z M 1125.601562 965.9375 " fill-opacity="1" fill-rule="nonzero"/></g><path fill="#000000" d="M 1155.789062 1007.945312 C 1149.171875 1001.355469 1138.835938 1001.355469 1132.21875 1007.945312 L 1125.601562 1014.535156 L 1118.988281 1007.945312 C 1112.371094 1001.355469 1102.03125 1001.355469 1095.417969 1007.945312 C 1088.800781 1014.535156 1088.800781 1025.242188 1095.417969 1031.832031 L 1102.03125 1038.421875 L 1125.601562 1062.308594 L 1149.171875 1038.421875 L 1155.789062 1031.832031 C 1161.992188 1024.832031 1161.992188 1014.535156 1155.789062 1007.945312 Z M 1155.789062 1007.945312 " fill-opacity="1" fill-rule="nonzero"/></svg>